<?xml version="1.0" encoding="UTF-8"?>
<svg version="1.1" viewBox="0 0 1254 1254" width="1254" height="1254" xmlns="http://www.w3.org/2000/svg">
<path transform="translate(0)" d="m0 0h1254v1254h-1254z" fill="#FCFBFC"/>
<path transform="translate(191,171)" d="m0 0h19l14 3h7l11 6 9 7 9 10-3-10 1-4 6 8 8 15 6 19 1-15h2l5 16 3 26h1l-1 14-1 8 3-1-2 14-2 11 11-14 12-13 8-7 3 1 18-13 7-4 3 1 16-7 18-4h10l-3 2 20 1 14 3 16 6 15 9v3l-15-4-21-3 14 6-1 2-31-4 12 4v2h-28l12 4 1 3h-22l-12 1 12 3 4 2v1l-23 2-10 2 14 2v2l-23 5-3 1 10 2v2l-21 6-4 2h10v2l-19 9-7 5 23-10 20-6 6-1v2l18-2h24l1 2-3 1 23 4 12 4v2l18 8 17 12 12 11 11 13-2 1-18-12-21-11 7 6 10 10 4 7-5-2-19-13-16-8-4-1 12 11 7 8-2 1-20-13-11-5-4-1 16 16v2l-6-2-9-6-17-8-12-4-1 1 11 9 4 4v2l-6-2-19-8-17-4 7 6 6 6-1 2-17-6-11-2h-9l12 6v2l-8-1h-22l15 6 10 7 7 7 2 4h-2l8 14 2 10v14l-3-1-6-15-4-6v22h-3l-5-17-4-7v15h-2l-3-10-2 3h-2l-4-13-2-4v11h-2l-5-10-5-6 1 10h-2l-7-8-11-6-8-1-9 6-10 15-9 17-13 32-11 33-7 28-7 39-3 29-1 16v44l3 35 6 39 7 33 7 28 12 39 11 28 12 25-1 2-10-11-13-18-14-24-8-15-11-25-10-28-8-29-6-29-3-23-1-14v-53l3-31 5-29 9-36 12-35 11-26 11-23 9-15 8-11-5 4-8 7-1-2 5-9-12 12-8 10-1-3 5-12-8 9-12 19-1-4 4-13-1-1-9 14-6 14h-2l1-10 2-9-15 30-1 3h-2l1-13 2-9-6 10-8 16-5 13h-2l1-14 4-13-9 19-9 25h-2l-1-4 1-17 1-5-10 21-9 26h-2v-12l2-14-7 15-10 26-2 7h-2l1-14 4-23 6-20 11-23 1-2-2-1 10-16 12-13 11-10 5-4-5 2v-2l17-13 13-8 21-10 15-5-15 2-12 4-2-1 8-7 5-3-18 5-16 8-5 3h-2l2-4 10-10 3-2-9 3-12 6-14 10-4 2 2-5 10-13-11 6-10 8-10 9-6 5-2-1 8-15 7-8-11 7-15 13-12 11-3 1 2-6 9-14 2-4-11 9-8 7-7 8-12 12-2-1 9-16 8-11-8 6-10 9-7 8-10 11-4 4 2-6 9-17 10-14 9-10 4-5 8-7 11-8 7-7 17-8 18-5 12-2-2-1v-2l11-2h29l23 3v-1l11 1 16 5-10-6-16-7-4-1v-2h8l13 2-16-7-11-3-13-1v-2l8-2 13-1-17-5v-2l-11-1-16 2-5 1 1-3 14-6 9-2v-1l-17-2 1-2h-8l-5 1 1-2-13 1-15 3v-3l16-7 12-3h-13l-15 2-8 2v-3l11-6-12 1-23 6-6 1v-2l13-8 11-4-30 6-21 5-4-1 16-8 16-7 11-3v-2l9-3 21-3h10l16 2 13 3-12-6 4-1 15 4 13 5 15 8 9 6-6-8 1-2 12 9 16 15 7 9 1-4 11 15 4 6-3-9-5-9 1-3 7 6 7 10-3-11-5-10-7-9-3-3v-2l-4-2 4-1 8 4 8 7-2-6-6-10-9-10-11-7v-2l10 1 14 7-5-6-1-5-12-11-12-7-5-2v-2l14 1 13 5-4-5-10-8-14-8-15-5-1-2h14l13 2-11-5-10-2 3-2-13-4-11-2 1-2z" fill="#FB4084"/>
<path transform="translate(652,628)" d="m0 0h135l16 3 14 5 12 7 12 11 8 14 4 16v10l-3 18-7 20-8 14-10 13-13 13-15 11-17 9-17 6-14 3-7 1h-149l3-10 30-89 12-36 13-38z" fill="#FB3E83"/>
<path transform="translate(1006,620)" d="m0 0 3 1 13 22 17 28 17 29 15 25 15 26 16 27 13 22v2h-195l2-4 28-28 4-3 88-1-13-23-10-19-13-23-10-18v-2h-2l-2 4-20 20-7 8-17 17-7 8-14 14-7 8-21 21-7 8-13 13h-53l6-7 68-68 7-8z" fill="#FB3E83"/>
<path transform="translate(748,420)" d="m0 0h144l13 4 11 8 7 11 3 14-1 14-4 14-7 13-10 13-9 8-11 7-12 5-8 2h-4l12 20 14 22 6 9v2h-49l-9-16-21-36-58-1-3 11-14 42h-41l3-11 25-74 1-2 131-1 10-3 9-6 6-9 2-6v-10l-2-5-11-3h-135l2-9 9-26z" fill="#03B2DC"/>
<path transform="translate(679,420)" d="m0 0h41l-1 7-32 94-7 16-9 14-11 12-11 9-14 8-15 5-6 1h-89l-12-3-11-6-9-8-6-10-3-11v-17l4-15 21-64 9-29 1-2h42l-12 37-19 57-2 9v7l3 10 5 6 9 4 5 1h55l12-3 10-5 9-8 7-11 6-14 16-49 13-41z" fill="#03B2DC"/>
<path transform="translate(1066,417)" d="m0 0h2l30 60 10 19 44 88v2h-162l3-5 19-19 7-8 1-1h68l-16-32-14-29-6-12-9 10-11 12-7 8-9 10-11 12-7 8-11 12-9 10-12 13-7 8-2 3h-50l6-7 12-13 16-17 8-8 7-8 12-12 7-8 9-9 7-8 13-13 7-8 11-11 7-8 11-11 7-8 9-9 7-8z" fill="#03B2DC"/>
<path transform="translate(309,421)" d="m0 0h137l12 2 9 4 6 4 7 8 4 10 1 4v17l-4 14-8 16-7 9-5 6-12 9-14 7-9 2-10 1h-99l-2 9-14 43h-41l3-11 25-75 132-1 11-4 9-8 4-8 1-3v-11l-3-5-7-3-138-1 2-9 9-25z" fill="#03B2DC"/>
<path transform="translate(255,628)" d="m0 0h52l10 19 9 17 11 23 17 34 11 23h2l12-13 7-8 9-10 11-12 7-8 14-15 7-8 14-15 7-8 12-13 5-6h51l-2 4-13 13-7 8-19 19-7 8-17 17-7 8-14 14-7 8-24 24-7 8-19 19-7 8-15 15-3 4-7-1-10-18-16-31-12-22-12-23-12-22-16-30-12-22-3-6z" fill="#FB3E83"/>
<path transform="translate(691,662)" d="m0 0h71l15 2 13 5 10 9 4 6 3 11v9l-4 16-6 12-8 10-7 7-15 10-12 5-13 3h-92l3-11 24-71 7-21z" fill="#FDFCFD"/>
<path transform="translate(291,923)" d="m0 0 6 5 9 11 39 39 8 7 13 11 17 13 16 12 16 10 15 9 18 10 16 8 19 9 29 11 28 9 30 7 27 5 27 3 17 1h31l30-2 28-4 33-7 28-8 25-9 30-13 22-11 24-14 27-18 21-16 11-9 14-12 13-12 19-19 7-8 9-10v3l-10 14-10 13-11 13-9 10-11 12-8 8-8 7-11 10-14 11-16 12-18 12-20 12-22 12-26 12-27 10-19 6-28 7-28 5-24 3-13 1h-48l-30-3-30-5-26-6-35-11-25-10-28-13-23-13-19-12-17-12-13-10-13-11-12-11-13-12-10-10-7-8-13-15-10-13-11-15-6-9z" fill="#03B2DC"/>
<path transform="translate(658,142)" d="m0 0h33l27 2 33 5 31 7 36 12 24 10 19 9 23 13 27 18 12 9 16 13 11 10 8 7 18 18 7 8 11 13 12 16 16 24 13 22 13 25 10 24-1 5-4-5-9-17-14-23-15-22-10-13-8-10-12-14-16-17-12-12-8-7-14-12-16-12-18-13-20-12-21-12-25-12-30-12-29-9-26-6-30-5-19-2-16-1h-34l-29 2-30 4-34 7-32 9-23 8-26 11-33 16-18 10h-5l-1-2 17-13 16-11 15-9 23-12 17-8 29-11 29-9 32-7 33-5z" fill="#FB4084"/>
<path transform="translate(657,930)" d="m0 0 3 3 16 30 10 19 11 23 5 16 1 6v9l-3 13-5 10-10 10-12 6-7 2h-16l-13-4-10-7-8-9-5-12-2-10 1-14 6-18 12-25 10-19 12-22z" fill="#FDFCFD"/>
<path transform="translate(555,628)" d="m0 0h48l-3 10-15 45-15 43-25 75-1 1h-46l1-7 21-62 14-41 19-58z" fill="#FB3F83"/>
<path transform="translate(657,930)" d="m0 0 3 3 16 30 10 19 11 23 5 16 1 6v9l-3 13-5 10-10 10-12 6-7 2h-16l-13-4-10-7-8-9-5-12-2-10 1-14 6-18 12-25 10-19 12-22zm0 29-18 34-10 19-4 11-1 5v10l4 13 7 9 10 6 6 2h13l11-4 10-9 5-10 1-5v-12l-5-15-10-21-18-33z" fill="#03B2DC"/>
<path transform="translate(722,430)" d="m0 0h8l-2 9-17 51-15 43-8 18-7 11-10 12-8 7-10 7-14 7-15 4-8 1h-80l-12-2-10-4-9-7-3-3 1-2 11 5 12 3h86l18-4 17-8 13-10 11-11 11-16 7-15 16-47 16-48z" fill="#FB649A"/>
<path transform="translate(489,456)" d="m0 0 3 3 2 5v20l-6 18-6 11-12 14-10 8-10 6-15 5-6 1h-104l-1 7-12 36-4 10h-43l-1-2 3-7h36l3-11 13-40 1-2 103-1 14-3 16-8 11-9 10-12 8-14 5-15 1-5z" fill="#FB649A"/>
<path transform="translate(857,684)" d="m0 0 2 3 1 7v17l-4 17-6 15-6 11-8 11-9 10-9 9-17 12-21 10-23 6-8 1h-152l1-5 1-2 144-1 18-3 18-6 16-8 11-7 10-8 9-8 11-14 9-15 6-15 5-21z" fill="#03B2DC"/>
<path transform="translate(1051,487)" d="m0 0 3 4 2 6-16 17-9 10-7 8-11 12-7 8-15 16-18 20-7 8-4 4h-51v-3l5-6 42-1 12-13 9-10 11-12 36-40 9-11 8-8 7-8z" fill="#FB649A"/>
<path transform="translate(521,637)" d="m0 0h9l-6 8-23 23-7 8-18 18-7 8-15 15-7 8-17 17-7 8-27 27-7 8-28 28h-5l-2-5 5-2 9-10 17-17 7-8 28-28 7-8 23-23 7-8 10-10 7-8 16-16 7-8 14-14 7-8z" fill="#03B2DC"/>
<path transform="translate(604,637)" d="m0 0h7l-2 9-18 53-14 41-17 50-8 23h-51l2-7h45l2-9 21-63 14-40 12-36z" fill="#03B2DC"/>
<path transform="translate(993,689)" d="m0 0h2l3 6-18 18-7 8-16 16-7 8-19 19-7 8-13 13-7 8-13 13-6 7h-55l6-7 45-1 35-35 7-8 17-17 7-8 16-16 7-8 17-17z" fill="#03B2DC"/>
<path transform="translate(930,806)" d="m0 0h187l4 7h-197z" fill="#03B2DC"/>
<path transform="translate(1e3 591)" d="m0 0h154l4 6-1 3h-163v-3z" fill="#FB649A"/>
<path transform="translate(689,667)" d="m0 0h80l13 3 10 6 4 5-15-5-5-1-84-1-2 9-17 51-10 29h-7l3-11 14-40 12-37z" fill="#03B2DC"/>
<path transform="translate(747,460)" d="m0 0h127l5 3 2 3v3h-142l1-6 1-2z" fill="#FB659B"/>
<path transform="translate(756,538)" d="m0 0h55l4 6v2l-52 1-14 41-4 11-5 1h-38l-1-2 3-7h35l3-11 12-36z" fill="#FB659B"/>
<path transform="translate(502,582)" d="m0 0 15 6 9 2h86l14-3h5l1 4 7 2v2l-15 4-8 1h-80l-12-2-10-4-9-7-3-3z" fill="#FB4687"/>
<path transform="translate(303,461)" d="m0 0h132l5 3 2 5h-142l2-7z" fill="#FB4486"/>
<path transform="translate(930,455)" d="m0 0 2 2 3 10v13l-3 12-5 12-8 12-9 10-8 7-14 8-12 4-5-1-4-7 10-4 16-8 10-8 7-7 9-14 6-13 4-16z" fill="#FB639A"/>
<path transform="translate(489,456)" d="m0 0 3 3 2 5v20l-6 18-6 11-12 14-10 8-10 6-15 5-8 1 2-5v-2l-5-1-3-1 16-4 16-8 11-9 10-12 8-14 5-15 1-5z" fill="#FB649A"/>
<path transform="translate(562,430)" d="m0 0h8l-1 7-16 47-13 38-4 18h-2l-3-8v-8l4-15 26-78z" fill="#FB649A"/>
<path transform="translate(942,870)" d="m0 0 8 1 6 4 4 8v9l-4 8-6 4-8 1-7-3-5-6-1-2v-12l3-6 6-5z" fill="#03B2DC"/>
<path transform="translate(656,978)" d="m0 0 1 3-11 30-4 16v8l4 11 4 5 10 5 8 1v2l-7 2h-7l-9-3-8-7-5-10v-16l4-11 13-25z" fill="#FB4486"/>
<path transform="translate(522,871)" d="m0 0h19l5 3 2 5-1 6-4 4h-2l8 14v1h-6l-7-12-9-2v14h-5z" fill="#03B2DC"/>
<path transform="translate(762,871)" d="m0 0h19l5 3 1 2v9l-6 5 8 13v1h-6l-7-11-2-2-7-1v14h-5z" fill="#03B2DC"/>
<path transform="translate(320,871)" d="m0 0h6l5 22 3-9 4-13h6l6 22 2-5 4-17h5l-1 8-6 23-1 2h-5l-3-9-3-10v-6h-2l-1 8-5 17h-6l-8-31z" fill="#03B2DC"/>
<path transform="translate(1048,886)" d="m0 0h107l-1 5h-106z" fill="#FB4687"/>
<path transform="translate(171,886)" d="m0 0h107v5h-106z" fill="#FB4587"/>
<path transform="translate(424,538)" d="m0 0h5l1 5 3 2-5 1h-73l-5-1v-1l6-1v-2l-2-2z" fill="#FC3D82"/>
<path transform="translate(756,538)" d="m0 0h55l4 6v2l-52 1-3 3-4-4h-2z" fill="#FB639A"/>
<path transform="translate(983,871)" d="m0 0h5l8 11 7 11 1-22h5v33h-6l-12-19-2-3-1 22h-5z" fill="#03B2DC"/>
<path transform="translate(958,590)" d="m0 0 4 2 1 3h2l-1 4-2 1h-51v-3l5-6z" fill="#FB4687"/>
<path transform="translate(819,871)" d="m0 0h6l12 31v2h-6l-3-9h-12l-4 9h-5l3-10z" fill="#03B2DC"/>
<path transform="translate(391,871)" d="m0 0h6l9 24 3 9h-6l-3-8-3-1h-9l-4 9h-5l3-10 8-21z" fill="#03B2DC"/>
<path transform="translate(941,875)" d="m0 0h6l6 4 2 5-1 9-3 5-3 2h-7l-6-5-1-3v-9l3-5z" fill="#FDFCFD"/>
<path transform="translate(848,591)" d="m0 0h48l5 6v3h-40l-9-1-4-6z" fill="#FB4788"/>
<path transform="translate(305,587)" d="m0 0 5 2v7l-2 4h-43l-1-2 3-7h36v-2h2z" fill="#FB4687"/>
<path transform="translate(474,871)" d="m0 0h23v4l-17 1v8l15 1v4l-15 1v9h17l1 5h-24z" fill="#03B2DC"/>
<path transform="translate(722,430)" d="m0 0h8l-2 9-10 30h-2l-1 2-5-1 1-9 10-30z" fill="#FB4687"/>
<path transform="translate(740,590)" d="m0 0 6 1v6l-2 3h-42l-1-2 2-6h37z" fill="#FB4385"/>
<path transform="translate(601,871)" d="m0 0h21v4h-16v10h14v4h-14v15h-5z" fill="#03B2DC"/>
<path transform="translate(426,871)" d="m0 0h25v4h-10v29h-5l-1-1v-28h-9z" fill="#03B2DC"/>
<path transform="translate(852,871)" d="m0 0h24v4h-9v29h-6v-29h-10z" fill="#03B2DC"/>
<path transform="translate(562,430)" d="m0 0h8l-1 7-8 23h-2l-1 2-5-1 1-9 7-21z" fill="#FB4688"/>
<path transform="translate(677,871)" d="m0 0h6v29h15v4h-21z" fill="#03B2DC"/>
<path transform="translate(715,871)" d="m0 0h25v4l-9 1-1 28h-5l-1-28h-8z" fill="#03B2DC"/>
<path transform="translate(741,461)" d="m0 0h29l3 2-2 1v2l6 1v1h-37z" fill="#FB3D82"/>
<path transform="translate(899,871)" d="m0 0h5l1 1v32h-6z" fill="#03B2DC"/>
<path transform="translate(646,871)" d="m0 0h5l1 33h-6z" fill="#03B2DC"/>
<path transform="translate(767,875)" d="m0 0h11l4 3v5l-4 3h-11z" fill="#FDFCFD"/>
<path transform="translate(528,875)" d="m0 0h10l4 3v5l-4 3h-10l-1-1v-9z" fill="#FDFCFD"/>
<path transform="translate(1018,592)" d="m0 0h26v1l-12 1 5 5h-27v-2l5-2 3-1z" fill="#FC3D82"/>
<path transform="translate(444,340)" d="m0 0 4 2 10 9 7 8 1 3-5-2-17-12-1-4z" fill="#FB4B8A"/>
<path transform="translate(862,461)" d="m0 0h15l3 3v4h-27v-1l9-1-1-4z" fill="#FB3F83"/>
<path transform="translate(757,539)" d="m0 0h18l-3 2v3h25v1l-35 1-2 4-4-5 1-3 2-1z" fill="#FC3D82"/>
<path transform="translate(930,455)" d="m0 0 2 2 2 11v11l-1 6-4-2-2 1v-8l2-9z" fill="#FB4788"/>
<path transform="translate(191,171)" d="m0 0h19l-1 3h-2v3l-5-1-5 1-15-3 1-2z" fill="#FB508E"/>
<path transform="translate(1e3 592)" d="m0 0h16v2l-4 3h-4v2h-14z" fill="#FC3D82"/>
<path transform="translate(225,234)" d="m0 0 10 1 9 4-2 3h-2l-1 3-9-6-5-3z" fill="#FB6299"/>
<path transform="translate(214,209)" d="m0 0 14 1 6 2-5 4h-4l-11-5z" fill="#FB5591"/>
<path transform="translate(371,304)" d="m0 0h24l1 2-3 1 13 2v1l-22-1v-2l3-1h-25v-1z" fill="#FB659B"/>
<path transform="translate(195,354)" d="m0 0h6l-3 3 3 2-16 5-2-1 8-7z" fill="#FB518F"/>
<path transform="translate(174,349)" d="m0 0v3l-10 10 1 2-8 5h-2l2-4 10-10 3-2 1-3z" fill="#FB5B95"/>
<path transform="translate(94,498)" d="m0 0 3 4h2l-1 6-4 12h-2l1-14z" fill="#FB6198"/>
<path transform="translate(393,878)" d="m0 0 2 1 3 8v3h-9z" fill="#FDFCFD"/>
<path transform="translate(851,593)" d="m0 0h12l-1 4h-4v2h-6l-2-5z" fill="#FB5E97"/>
<path transform="translate(821,878)" d="m0 0 2 1 3 8v3h-9z" fill="#FDFCFD"/>
<path transform="translate(162,284)" d="m0 0 4 1-8 4h10v1l-16 2-5 1 1-3z" fill="#FB5E96"/>
<path transform="translate(407,345)" d="m0 0 4 1 9 9v2l-6-2-7-5-1-4z" fill="#FB5490"/>
<path transform="translate(1e3 593)" d="m0 0h15l-4 4h-4v2l-6-2z" fill="#FB659B"/>
<path transform="translate(118,262)" d="m0 0 3 1-2 2 1 3-13 3v-3z" fill="#FB5390"/>
<path transform="translate(885,593)" d="m0 0h11v4h-4v2l-6-2z" fill="#FB649A"/>
<path transform="translate(1150,592)" d="m0 0h6l3 5v2h-10v-2l3-3z" fill="#FB4486"/>
<path transform="translate(377,343)" d="m0 0 7 2 6 6v2l-6-2-6-3v-3z" fill="#FB5490"/>
<path transform="translate(225,234)" d="m0 0 10 1-1 5-5-2-4-2z" fill="#FB518E"/>
<path transform="translate(134,322)" d="m0 0 12 1 2 2-1 1h-11z" fill="#FB659B"/>
<path transform="translate(315,305)" d="m0 0h15v2l-5 1h-12v-2z" fill="#FB6299"/>
<path transform="translate(352,304)" d="m0 0 1 2h9v1l-16 3v-2l2-1-1-2z" fill="#FB6EA1"/>
<path transform="translate(257,183)" d="m0 0 5 5 2 4-2 2-1-2-2 1-2-6z" fill="#FB5D96"/>
<path transform="translate(896,592)" d="m0 0 5 5v3l-9-1v-2l4-1z" fill="#FB4889"/>
<path transform="translate(287,240)" d="m0 0h1l1 12h1v7h-3l-1-3z" fill="#FB659B"/>
<path transform="translate(478,354)" d="m0 0 4 2 4 6-5-2-6-4z" fill="#FB5691"/>
<path transform="translate(434,350)" d="m0 0 5 4 2 4-5-2-6-4z" fill="#FB5F97"/>
<path transform="translate(490,459)" d="m0 0h2l1 12-3 1z" fill="#FB3F83"/>
<path transform="translate(123,427)" d="m0 0 2 1-5 7h-2l-2 4-3-2 2-2 2 1 2-4z" fill="#FB8AB3"/>
<path transform="translate(444,340)" d="m0 0 4 2 3 3-5 2-3-3z" fill="#FB6098"/>
<path transform="translate(96,502)" d="m0 0h3l-1 6-3 6h-1v-6z" fill="#FB5490"/>
<path transform="translate(152,389)" d="m0 0 6 1v2l-12 4v-2z" fill="#FB7DAB"/>
<path transform="translate(302,375)" d="m0 0 4 2 1 7v8h-2v-7z" fill="#FB75A5"/>
<path transform="translate(146,238)" d="m0 0 9 1 4 2h-3v2l-9-3z" fill="#FB5C95"/>
<path transform="translate(197,173)" d="m0 0h12l-2 1v3l-5-1-5-2z" fill="#FB659B"/>
<path transform="translate(656,978)" d="m0 0 1 3-3 9-3-2 2-5z" fill="#FB5591"/>
<path transform="translate(194,312)" d="m0 0h8l7 1v1l-11 1-4-1z" fill="#FB6098"/>
<path transform="translate(53,262)" d="m0 0 3 1 2 2-8 2-4-1z" fill="#FB5A94"/>
</svg>
